# xmcd
#
# Track frame offsets: 
#        150
#        19004
#        41938
#        62534
#        86905
#        111451
#        138605
#        161053
#        177215
#
# Disc length: 2792 seconds
#
# Revision: 0
# Processed by: cddbd v1.5.2PL0 Copyright (c) Steve Scherf et al.
# Submitted via: ExactAudioCopy v0.95b4
#
DISCID=7f0ae609
DTITLE=Teddy Pendergrass - Life Is A Song Worth Singing
DYEAR=2008
DGENRE=R&B
TTITLE0=Life Is A Song Worth Singing
TTITLE1=Only You
TTITLE2=Cold, Cold World
TTITLE3=Get Up, Get Down, Get Funky, Get Loose
TTITLE4=Close The Door
TTITLE5=It Don't Hurt Now
TTITLE6=When Somebody Loves You Back
TTITLE7=Only You (Single Version)
TTITLE8=Get Down, Get Funky (Disco Version)
EXTD=
EXTT0=
EXTT1=
EXTT2=
EXTT3=
EXTT4=
EXTT5=
EXTT6=
EXTT7=
EXTT8=
PLAYORDER=
